# xmcd
#
# Track frame offsets:
#	150
#	13927
#	26706
#	39972
#	52647
#	64287
#	76336
#	89236
#	100717
#	115416
#	132069
#	144970
#
# Disc length: 2139 seconds
#
# Revision: 1
# Processed by: cddbd v1.5.2PL0 Copyright (c) Steve Scherf et al.
# Submitted via: audiograbber 1.83.01
#
DISCID=9808590c
DTITLE=Nashville Music Express - Volume 23
DYEAR=2000
DGENRE=Country
TTITLE0=Buenos Noches Nacadoches  - Johnny Duncan
TTITLE1=Don´t Make Your Brown Eyes Blue  - Marie Landoll
TTITLE2=Driving Under The Influence Of Love  - Mark Alan Thompson
TTITLE3=How´s His Memory Going Down Today  - Ray Smith
TTITLE4=I Still Remember - Tim Miller
TTITLE5=Imagine That  - Billy Jack
TTITLE6=Quens Of Hearts  - Elvis Wade
TTITLE7=Shame On Me  - Marie Isabel
TTITLE8=Thank You For Making A Man Out Of Me - Jason Land
TTITLE9=The Lottery Truck  - Lamar Harris
TTITLE10=Turn Me Lose And Let Me Down  - Willie Nelson
TTITLE11=What Do You Do  - John Smith
EXTD=
EXTT0=
EXTT1=
EXTT2=
EXTT3=
EXTT4=
EXTT5=
EXTT6=
EXTT7=
EXTT8=
EXTT9=
EXTT10=
EXTT11=
PLAYORDER=
